<svg width="1506" height="1506" viewBox="0 0 1506 1506" fill="none" xmlns="http://www.w3.org/2000/svg">
<path d="M1194.96 672.044C1209.93 668.999 1224.47 678.634 1227.56 693.58C1230.56 708.544 1220.93 723.096 1205.98 726.219C1191.03 729.18 1176.47 719.549 1173.4 704.599C1172.5 700.143 1172.86 695.68 1174.03 691.55C1175.59 686.092 1178.8 681.298 1183.24 677.745C1186.56 674.998 1190.49 672.956 1194.96 672.044ZM750.215 91.4751L825.346 460.762L1159.63 682.05C1156.33 689.929 1155.27 698.924 1157.1 707.914C1161.98 731.86 1185.34 747.32 1209.3 742.528C1233.25 737.572 1248.71 714.213 1243.86 690.264C1238.98 666.322 1215.62 650.859 1191.64 655.735C1182.61 657.573 1174.82 662.059 1168.82 668.166L840.27 450.684L766.514 88.1576C785.785 80.2608 797.387 59.5913 793.08 38.4301C788.21 14.4845 764.841 -0.975898 740.889 3.89757C716.919 8.77427 701.474 32.1313 706.322 56.0818C710.65 77.2378 729.382 91.7354 750.215 91.4751Z" fill="white" stroke="white" stroke-width="5"/>
<path d="M1044.07 335.884C1029.11 338.845 1014.55 329.226 1011.49 314.325C1009.11 302.473 1014.7 290.961 1024.53 285.12C1027.13 283.61 1029.93 282.387 1033.05 281.752C1035.66 281.222 1038.22 281.192 1040.75 281.411C1052.69 282.332 1063.1 290.916 1065.62 303.312C1068.63 318.222 1059.01 332.763 1044.07 335.884ZM1080.09 524.474C1084.97 548.48 1108.33 563.908 1132.28 559.034C1156.25 554.158 1171.73 530.829 1166.85 506.822C1161.98 482.893 1138.6 467.39 1114.63 472.265C1105.6 474.102 1097.8 478.631 1091.82 484.749L934.449 380.573L903.675 229.316C900.729 214.717 903.941 200.503 911.518 188.995C919.133 177.56 931.022 169.011 945.568 166.053C960.112 163.094 974.396 166.315 985.851 173.871C997.314 181.505 1005.83 193.335 1008.82 207.923L1021.07 268.096C1002.18 276.268 990.929 296.695 995.191 317.642C1000.06 341.57 1023.39 357.003 1047.39 352.202C1071.34 347.248 1086.8 323.923 1081.95 299.991C1077.57 278.578 1058.45 264.084 1037.34 264.623L1025.13 204.605C1017.39 166.555 980.266 142 942.247 149.735C904.207 157.474 879.655 194.578 887.372 232.631L919.519 390.636L1082.63 498.631C1079.32 506.494 1078.25 515.451 1080.09 524.474Z" fill="white" stroke="white" stroke-width="5"/>
<path d="M311.038 834.009C296.066 836.975 281.508 827.338 278.454 812.447C275.431 797.472 285.068 782.914 300.025 779.871C314.973 776.83 329.531 786.466 332.606 801.431C333.5 805.895 333.143 810.299 331.976 814.473C330.398 819.912 327.206 824.734 322.785 828.311C319.457 831.036 315.529 833.094 311.038 834.009ZM755.792 1414.55L680.66 1045.26L346.369 823.985C349.671 816.068 350.739 807.112 348.908 798.115C344.025 774.148 320.654 758.665 296.702 763.539C272.741 768.414 257.277 791.796 262.153 815.765C267.03 839.734 290.385 855.14 314.346 850.264C323.374 848.428 331.197 844.001 337.177 837.824L665.721 1055.31L739.481 1417.87C720.207 1425.72 708.616 1446.43 712.915 1467.6C717.8 1491.57 741.154 1506.97 765.115 1502.1C789.068 1497.23 804.547 1473.92 799.679 1449.95C795.363 1428.78 776.611 1414.25 755.792 1414.55Z" fill="white" stroke="white" stroke-width="5"/>
<path d="M461.949 1170.23C476.895 1167.19 491.451 1176.78 494.519 1191.74C496.903 1203.58 491.311 1215.11 481.476 1220.9C478.889 1222.44 476.078 1223.71 472.958 1224.34C470.353 1224.87 467.783 1224.85 465.264 1224.67C453.307 1223.69 442.91 1215.11 440.373 1202.76C437.359 1187.79 447.001 1173.27 461.949 1170.23ZM425.919 981.59C421.043 957.621 397.669 942.145 373.717 947.019C349.755 951.893 334.294 975.271 339.164 999.242C344.047 1023.21 367.398 1038.61 391.359 1033.74C400.389 1031.9 408.21 1027.44 414.2 1021.34L571.541 1125.45L602.329 1276.78C605.275 1291.3 602.074 1305.59 594.486 1317.06C586.889 1328.53 574.991 1337.07 560.454 1340.03C545.91 1342.99 531.626 1339.77 520.146 1332.18C508.686 1324.59 500.156 1312.69 497.196 1298.17L484.944 1237.95C503.822 1229.85 515.075 1209.34 510.821 1188.43C505.958 1164.53 482.593 1149.05 458.631 1153.93C434.679 1158.8 419.218 1182.18 424.072 1206.07C428.441 1227.51 447.557 1241.99 468.673 1241.42L480.894 1301.49C488.64 1339.52 525.735 1364.07 563.772 1356.33C601.808 1348.59 626.362 1311.5 618.63 1273.46L586.48 1115.43L423.382 1007.46C426.694 999.572 427.752 990.598 425.919 981.59Z" fill="white" stroke="white" stroke-width="5"/>
<path d="M1202.75 1065.66C1187.78 1068.7 1173.24 1059 1170.16 1044.04C1167.16 1029.14 1176.79 1014.59 1191.73 1011.48C1203.56 1009.15 1215.05 1014.72 1220.88 1024.51C1222.44 1027.11 1223.66 1029.93 1224.29 1033.02C1224.83 1035.68 1224.85 1038.21 1224.65 1040.78C1223.68 1052.72 1215.08 1063.15 1202.75 1065.66ZM1273.41 887.393L1115.38 919.546L1007.41 1082.68C999.51 1079.37 990.566 1078.27 981.537 1080.11C957.588 1084.98 942.116 1108.32 947.006 1132.35C951.864 1156.23 975.238 1171.74 999.187 1166.87C1023.16 1161.99 1038.6 1138.58 1033.76 1114.7C1031.9 1105.64 1027.41 1097.8 1021.29 1091.83L1125.44 934.462L1276.73 903.684C1291.27 900.724 1305.56 903.959 1317.01 911.529C1328.52 919.169 1337.02 931.024 1339.99 945.545C1342.95 960.139 1339.74 974.379 1332.14 985.903C1324.57 997.349 1312.65 1005.83 1298.11 1008.8L1237.88 1021.05C1229.8 1002.2 1209.34 990.932 1188.41 995.19C1164.44 1000.07 1149 1023.47 1153.84 1047.36C1158.75 1071.38 1182.09 1086.82 1206.05 1081.95C1227.47 1077.59 1241.97 1058.44 1241.38 1037.38L1301.45 1025.16C1339.47 1017.42 1364.02 980.263 1356.29 942.228C1348.55 904.194 1311.43 879.658 1273.41 887.393Z" fill="white" stroke="white" stroke-width="5"/>
<path d="M833.992 1195.01C836.995 1209.93 827.373 1224.54 812.423 1227.58C797.473 1230.63 782.906 1220.93 779.842 1206.02C776.822 1191.03 786.46 1176.49 801.41 1173.45C805.905 1172.53 810.317 1172.88 814.439 1174.06C819.9 1175.59 824.73 1178.8 828.319 1183.27C831.015 1186.6 833.065 1190.54 833.992 1195.01ZM1449.9 706.363C1428.76 710.666 1414.27 729.377 1414.52 750.214L1045.24 825.348L823.973 1159.7C816.06 1156.34 807.117 1155.28 798.087 1157.12C774.13 1161.99 758.674 1185.41 763.542 1209.34C768.412 1233.28 791.788 1248.79 815.746 1243.91C839.704 1239.04 855.152 1215.63 850.282 1191.69C848.448 1182.67 843.967 1174.81 837.844 1168.83L1055.32 840.303L1417.84 766.544C1425.76 785.824 1446.4 797.386 1467.55 793.082C1491.53 788.204 1506.97 764.873 1502.1 740.936C1497.22 716.926 1473.89 701.486 1449.9 706.363Z" fill="white" stroke="white" stroke-width="5"/>
<path d="M672.017 311.004C669.005 296.084 678.648 281.516 693.585 278.477C708.524 275.438 723.092 285.08 726.151 299.99C729.177 314.989 719.536 329.556 704.597 332.596C700.114 333.508 695.698 333.186 691.575 331.992C686.1 330.422 681.283 327.255 677.682 322.782C674.975 319.43 672.938 315.533 672.017 311.004ZM682.043 346.373C689.938 349.648 698.881 350.755 707.918 348.917C731.883 344.04 747.326 320.649 742.47 296.669C737.586 272.778 714.231 257.28 690.266 262.156C666.316 267.028 650.849 290.426 655.703 314.323C657.554 323.381 662.018 331.174 668.158 337.162L450.7 665.718L88.1611 739.478C80.2518 720.188 59.6061 708.611 38.4363 712.919C14.4768 717.793 -0.97201 741.186 3.89636 765.162C8.76652 789.057 32.1282 804.554 56.0877 799.679C77.2576 795.372 91.7388 776.649 91.4821 755.8L460.776 680.666L682.043 346.373Z" fill="white" stroke="white" stroke-width="5"/>
<path d="M303.271 440.425C318.219 437.384 332.767 446.992 335.838 461.934C338.849 476.89 329.229 491.495 314.281 494.536C302.445 496.943 290.958 491.335 285.113 481.498C283.571 478.893 282.329 476.064 281.697 472.949C281.173 470.381 281.157 467.788 281.367 465.313C282.333 453.361 290.922 442.936 303.271 440.425ZM232.606 618.669L390.641 586.516L498.582 423.391C506.493 426.726 515.426 427.748 524.457 425.909C548.422 421.034 563.887 397.699 559.017 373.715C554.13 349.738 530.776 334.299 506.811 339.175C482.853 344.049 467.388 367.386 472.267 391.365C474.104 400.397 478.579 408.243 484.715 414.212L380.556 571.539L229.28 602.318C214.736 605.277 200.459 602.1 188.974 594.463C177.519 586.902 168.987 575.016 166.025 560.457C163.063 545.897 166.273 531.622 173.863 520.187C181.451 508.669 193.35 500.167 207.895 497.209L268.11 484.957C276.213 503.822 296.663 515.067 317.591 510.809C341.547 505.935 357.013 482.598 352.141 458.617C347.271 434.716 323.901 419.199 299.945 424.075C278.534 428.43 264.035 447.597 264.636 468.718L204.584 480.936C166.542 488.675 141.992 525.779 149.715 563.775C157.468 601.846 194.564 626.408 232.606 618.669Z" fill="white" stroke="white" stroke-width="5"/>
</svg>
