<svg width="190.7760814249364" height="374.875" viewBox="0 0 200 393" class="css-1j8o68f">
    <g id="SvgjsG2015" featurekey="rootContainer" transform="matrix(1,0,0,1,0,0)" fill="#111111">
        <path xmlns="http://www.w3.org/2000/svg" fill-rule="evenodd" d="M5,65 L100,0 L195, 65 L100, 10 z M5,313 L100,393 L195,308 L100, 383 z"></path>
    </g>
    <g id="SvgjsG2016" featurekey="monogramFeature-0" transform="matrix(2.25,0,0,2.25,45.05802917480469,77.21925401687622)" fill="#111111">
        <path d="M6.5332 40.897999999999996 c1.9043 -8.1738 3.8086 -16.377 5.7129 -24.551 l17.578 0 c10.518 0 17.871 5.4492 13.037 17.373 c-1.2305 2.959 -2.8711 5.332 -4.7461 7.1777 l2.666 0 c-4.5996 4.4238 -10.957 5.918 -18.281 5.918 l-3.0469 13.154 l-14.59 0 l4.3945 -19.072 l-2.7246 0 z M24.316 27.217 c-0.61523 2.8711 -1.3184 5.8008 -1.9629 8.7891 c7.2949 -0.38086 10.02 -8.7891 1.9629 -8.7891 z"></path>
    </g>
    <g id="SvgjsG2017" featurekey="nameFeature-0" transform="matrix(1.5718328776322732,0,0,1.5718328776322732,-3.143665005756224,224.05407102940472)" fill="#111111">
        <path d="M2 40 l0 -32 l6.48 0 c4.12 0 5.2 2.52 5.52 8.56 l0 1.28 c-0.32 6.04 -1.4 8.56 -5.52 8.56 l-2.48 0 l0 13.6 l-4 0 z M6 23.2 l2.48 0 c1.2 0 1.64 -1 1.8 -5.36 l0 -1.28 c-0.16 -4.36 -0.6 -5.36 -1.8 -5.36 l-2.48 0 l0 12 z M16.400000000000002 23.16 c0 -11.16 0.24 -15.56 6.24 -15.56 s6.24 4.4 6.24 15.56 c0 12.8 -0.24 17.24 -6.24 17.24 s-6.24 -4.44 -6.24 -17.24 z M20.4 23.16 c0 11.56 0 13.24 2.24 13.24 s2.24 -1.68 2.24 -13.24 c0 -10.4 0 -12.36 -2.24 -12.36 s-2.24 1.96 -2.24 12.36 z M32.08 23.16 c0 -11.16 0 -15.56 5.6 -15.56 c4.12 0 5.24 2.52 5.52 8.56 l-3.72 0 c-0.16 -4.36 -0.6 -5.36 -1.8 -5.36 c-1.84 0 -1.84 1.96 -1.84 12.36 c0 11.56 0 13.24 1.84 13.24 c1.32 0 1.72 -1 1.8 -6.16 l3.76 0 c-0.24 7.4 -1.24 10.16 -5.56 10.16 c-5.6 0 -5.6 -4.44 -5.6 -17.24 z M46.04 40 l0 -32 l4 0 l0 12.68 l4 -12.68 l4 0 l-4.8 15.2 l4.8 16.8 l-4 0 l-4 -14 l0 14 l-4 0 z M60.44 40 l0 -32 l9.2 0 l0 3.2 l-5.2 0 l0 10.4 l4.4 0 l0 3.2 l-4.4 0 l0 11.2 l5.2 0 l0 4 l-9.2 0 z M70.84 11.600000000000001 l0 -3.6 l12 0 l0 3.6 l-4 0 l0 28.4 l-4 0 l0 -28.4 l-4 0 z M85.24 40 l0 -16.8 c0 -11.16 0 -15.56 6 -15.56 s6 4.4 6 15.56 l0 16.8 l-4 0 l0 -9.2 l-4 0 l0 9.2 l-4 0 z M89.24 27.6 l4 0 l0 -4.4 c0 -10.4 0 -12.36 -2 -12.36 s-2 1.96 -2 12.36 l0 4.4 z M101.24 40 l0 -32 l6.48 0 c4.12 0 5.52 2.52 5.52 7.36 c0 4.36 -0.52 6.84 -1.76 8.04 l0 0.24 c1.04 0.36 1.36 2.24 1.76 6.92 l0.8 9.44 l-4 0 l-0.52 -9.44 c-0.28 -4.76 -1 -5.76 -2.2 -5.76 l-2.08 0 l0 15.2 l-4 0 z M105.24 21.6 l2.48 0 c1.4 0 1.8 -1.4 1.8 -6.24 c0 -3.16 -0.6 -4.16 -1.8 -4.16 l-2.48 0 l0 10.4 z M117.24 40 l0 -32 l4 0 l0 12.68 l4 -12.68 l4 0 l-4.8 15.2 l4.8 16.8 l-4 0 l-4 -14 l0 14 l-4 0 z"></path>
    </g>
</svg>