<svg width="325" height="325" viewBox="0 0 325 325" fill="none" xmlns="http://www.w3.org/2000/svg">
<g filter="url(#filter0_d_896_11)">
<path d="M37.6494 180.999C50.9323 123.985 64.2153 66.7657 77.4983 9.75H200.109C273.475 9.75 324.764 47.7595 291.046 130.931C282.463 151.571 271.019 168.123 257.94 180.997H276.536C244.453 211.854 200.109 222.277 149.022 222.277L127.769 314.029H26L56.6527 180.997H37.648L37.6494 180.999ZM161.689 85.571C157.397 105.598 152.493 126.033 147.997 146.877C198.881 144.221 217.889 85.571 161.689 85.571Z" fill="url(#paint0_linear_896_11)"/>
</g>
<defs>
<filter id="filter0_d_896_11" x="22" y="9.75" width="283.631" height="312.279" filterUnits="userSpaceOnUse" color-interpolation-filters="sRGB">
<feFlood flood-opacity="0" result="BackgroundImageFix"/>
<feColorMatrix in="SourceAlpha" type="matrix" values="0 0 0 0 0 0 0 0 0 0 0 0 0 0 0 0 0 0 127 0" result="hardAlpha"/>
<feOffset dy="4"/>
<feGaussianBlur stdDeviation="2"/>
<feComposite in2="hardAlpha" operator="out"/>
<feColorMatrix type="matrix" values="0 0 0 0 0 0 0 0 0 0 0 0 0 0 0 0 0 0 0.25 0"/>
<feBlend mode="normal" in2="BackgroundImageFix" result="effect1_dropShadow_896_11"/>
<feBlend mode="normal" in="SourceGraphic" in2="effect1_dropShadow_896_11" result="shape"/>
</filter>
<linearGradient id="paint0_linear_896_11" x1="40.5" y1="-5.50001" x2="295.5" y2="333" gradientUnits="userSpaceOnUse">
<stop stop-color="white"/>
<stop offset="1" stop-color="#C1C1C1"/>
</linearGradient>
</defs>
</svg>
